<?xml version="1.0" encoding="utf-8"?>
<!-- Generator: Adobe Illustrator 17.0.0, SVG Export Plug-In . SVG Version: 6.00 Build 0)  -->
<!DOCTYPE svg PUBLIC "-//W3C//DTD SVG 1.1//EN" "http://www.w3.org/Graphics/SVG/1.1/DTD/svg11.dtd">
<svg version="1.1" id="图层_1" xmlns="http://www.w3.org/2000/svg" xmlns:xlink="http://www.w3.org/1999/xlink" x="0px" y="0px"
	 width="400px" height="350px" viewBox="0 0 400 350" enable-background="new 0 0 400 350" xml:space="preserve">
<g>
	<path fill="#444444" d="M240.002,190.842c5.057,0,9.168,4.113,9.168,9.168c0,5.056-4.11,9.169-9.168,9.169
		c-5.056,0-9.168-4.113-9.168-9.169C230.835,194.954,234.945,190.842,240.002,190.842 M240.002,190.007
		c-5.524,0-10.002,4.478-10.002,10.002c0,5.523,4.478,10.002,10.002,10.002c5.523,0,10.002-4.48,10.002-10.002
		C250.005,194.486,245.525,190.007,240.002,190.007L240.002,190.007L240.002,190.007L240.002,190.007z M240.002,190.007"/>
</g>
<g>
	<path fill="#F79321" d="M240.007,230C234.48,230,230,234.48,230,240.007c0,5.527,4.48,10.007,10.007,10.007
		c5.527,0,10.007-4.48,10.007-10.007C250.014,234.48,245.534,230,240.007,230L240.007,230L240.007,230z M245.747,237.411
		l-6.472,6.472l0,0c-0.298,0.298-0.753,0.345-1.101,0.14c-0.064-0.038-0.125-0.085-0.18-0.14l0,0l-3.726-3.726
		c-0.353-0.354-0.353-0.927,0-1.281c0.354-0.354,0.927-0.354,1.281,0l3.086,3.086l5.832-5.832c0.354-0.354,0.927-0.354,1.281,0
		C246.101,236.484,246.101,237.058,245.747,237.411L245.747,237.411L245.747,237.411z M245.747,237.411"/>
</g>
<g>
	<path fill="#333333" d="M300.001,160.014c-1.35,0-2.66-0.264-3.893-0.786c-1.191-0.504-2.26-1.225-3.179-2.143
		c-0.918-0.918-1.639-1.988-2.143-3.179c-0.522-1.233-0.786-2.543-0.786-3.893c0-1.35,0.264-2.66,0.786-3.893
		c0.504-1.191,1.225-2.26,2.143-3.179c0.918-0.918,1.988-1.639,3.179-2.143c1.233-0.522,2.543-0.786,3.893-0.786
		c1.35,0,2.659,0.264,3.893,0.786c1.191,0.504,2.26,1.225,3.179,2.143c0.918,0.918,1.639,1.988,2.143,3.179
		c0.522,1.233,0.786,2.543,0.786,3.893c0,1.35-0.264,2.659-0.786,3.893c-0.504,1.191-1.225,2.26-2.143,3.179
		c-0.918,0.918-1.988,1.639-3.179,2.143C302.66,159.749,301.35,160.014,300.001,160.014L300.001,160.014z M300.001,141.147
		c-4.889,0-8.867,3.978-8.867,8.867c0,4.889,3.978,8.867,8.867,8.867c4.889,0,8.867-3.978,8.867-8.867
		C308.867,145.124,304.89,141.147,300.001,141.147L300.001,141.147z M300.001,141.147"/>
	<path fill="#333333" d="M294.921,155.66c-0.145,0-0.29-0.055-0.401-0.166c-0.221-0.221-0.221-0.58,0-0.802l10.159-10.159
		c0.221-0.221,0.58-0.221,0.802,0c0.221,0.221,0.221,0.58,0,0.802l-10.159,10.159C295.211,155.604,295.066,155.66,294.921,155.66
		L294.921,155.66z M294.921,155.66"/>
	<path fill="#333333" d="M305.08,155.66c-0.145,0-0.29-0.055-0.401-0.166l-10.159-10.159c-0.221-0.221-0.221-0.58,0-0.802
		c0.221-0.221,0.58-0.221,0.802,0l10.159,10.159c0.221,0.221,0.221,0.58,0,0.802C305.37,155.604,305.225,155.66,305.08,155.66
		L305.08,155.66z M305.08,155.66"/>
</g>
<g>
	<path fill="#333333" d="M336.296,118.697h-12.592c-0.961,0-1.707-0.747-1.707-1.707v-7.257c0-0.96,0.747-1.707,1.707-1.707h12.592
		c0.96,0,1.707,0.747,1.707,1.707v7.257C338.004,117.95,337.257,118.697,336.296,118.697L336.296,118.697z M323.704,109.093
		c-0.32,0-0.64,0.32-0.64,0.64v7.257c0,0.32,0.32,0.64,0.64,0.64h12.592c0.32,0,0.64-0.32,0.64-0.64v-7.257
		c0-0.32-0.32-0.64-0.64-0.64H323.704L323.704,109.093L323.704,109.093z M323.704,109.093"/>
	<path fill="#333333" d="M333.735,108.559v-2.454c0-2.028-1.707-3.735-3.735-3.735c-2.027,0-3.735,1.707-3.735,3.735v2.454h-1.067
		v-2.454c0-2.668,2.134-4.802,4.802-4.802c2.668,0,4.802,2.134,4.802,4.802v2.454H333.735L333.735,108.559L333.735,108.559z
		 M333.735,108.559"/>
	<path fill="#333333" d="M330,115.069c-0.32,0-0.534-0.213-0.534-0.534v-2.454c0-0.32,0.213-0.534,0.534-0.534
		s0.534,0.213,0.534,0.534v2.454C330.534,114.855,330.32,115.069,330,115.069L330,115.069z M330,115.069"/>
	<path fill="#333333" d="M330,115.602c-0.32,0-0.534-0.107-0.747-0.32c-0.213-0.213-0.32-0.427-0.32-0.747
		c0-0.32,0.107-0.534,0.32-0.747c0.427-0.427,1.067-0.427,1.494,0c0.213,0.213,0.32,0.427,0.32,0.747c0,0.32-0.107,0.534-0.32,0.747
		C330.534,115.496,330.32,115.602,330,115.602L330,115.602L330,115.602z M330,115.602"/>
</g>
<g>
	<path fill="#333333" d="M297.632,110.278h-1.364c-0.274,0-0.497,0.223-0.497,0.497v1.364c0,0.275,0.223,0.498,0.497,0.498h1.364
		c0.274,0,0.497-0.223,0.497-0.498v-1.364C298.129,110.501,297.906,110.278,297.632,110.278L297.632,110.278z M296.27,112.139
		l-0.002-1.362l1.363-0.001l0,1.363L296.27,112.139L296.27,112.139z M296.27,112.139"/>
	<path fill="#333333" d="M297.632,107.364h-1.364c-0.274,0-0.497,0.223-0.497,0.497v1.364c0,0.274,0.223,0.497,0.497,0.497h1.364
		c0.274,0,0.497-0.223,0.497-0.497v-1.364C298.129,107.587,297.906,107.364,297.632,107.364L297.632,107.364z M297.631,109.224
		l-1.361,0.001l-0.002-1.363l1.363-0.001V109.224L297.631,109.224z M297.632,109.473v-0.249h0L297.632,109.473L297.632,109.473z
		 M297.632,109.473"/>
	<path fill="#333333" d="M299.367,109.723h1.364c0.275,0,0.498-0.223,0.498-0.497v-1.364c0-0.274-0.223-0.497-0.498-0.497h-1.364
		c-0.274,0-0.497,0.223-0.497,0.497v1.364C298.87,109.5,299.093,109.723,299.367,109.723L299.367,109.723z M300.73,107.861v1.363
		l-1.362,0.001l-0.001-1.363L300.73,107.861L300.73,107.861z M300.73,107.861"/>
	<path fill="#333333" d="M303.752,107.364h-1.364c-0.274,0-0.497,0.223-0.497,0.497v2.416h-2.523c-0.274,0-0.497,0.223-0.497,0.497
		v1.364c0,0.275,0.223,0.498,0.497,0.498l4.44-0.005c0.252-0.028,0.442-0.241,0.442-0.493v-4.277
		C304.249,107.587,304.026,107.364,303.752,107.364L303.752,107.364z M299.369,112.138l-0.001-1.361h3.022l-0.001-2.914l1.363-0.001
		l0.029,4.273L299.369,112.138L299.369,112.138z M299.369,112.138"/>
	<path fill="#333333" d="M307.39,106.882c-0.403-0.954-0.981-1.81-1.716-2.546c-0.736-0.735-1.592-1.313-2.546-1.716
		c-0.988-0.418-2.037-0.63-3.118-0.63c-1.081,0-2.13,0.212-3.118,0.63c-0.954,0.404-1.81,0.981-2.546,1.716
		c-0.735,0.736-1.313,1.592-1.716,2.546c-0.418,0.988-0.63,2.037-0.63,3.118c0,1.081,0.212,2.13,0.63,3.118
		c0.404,0.954,0.981,1.811,1.716,2.546c0.736,0.736,1.592,1.313,2.546,1.716c0.988,0.418,2.037,0.63,3.118,0.63
		c1.081,0,2.13-0.212,3.118-0.63c0.954-0.403,1.81-0.981,2.546-1.716c0.736-0.735,1.313-1.592,1.716-2.546
		c0.418-0.988,0.63-2.037,0.63-3.118C308.02,108.919,307.808,107.87,307.39,106.882L307.39,106.882z M300.01,117.262
		c-4.004,0-7.262-3.258-7.262-7.262c0-4.004,3.258-7.262,7.262-7.262c4.004,0,7.262,3.258,7.262,7.262
		C307.272,114.004,304.014,117.262,300.01,117.262L300.01,117.262z M300.01,117.262"/>
</g>
</svg>
