<?xml version="1.0" encoding="utf-8"?>
<!-- Generator: Adobe Illustrator 17.0.0, SVG Export Plug-In . SVG Version: 6.00 Build 0)  -->
<!DOCTYPE svg PUBLIC "-//W3C//DTD SVG 1.1//EN" "http://www.w3.org/Graphics/SVG/1.1/DTD/svg11.dtd">
<svg version="1.1" id="图层_1" xmlns="http://www.w3.org/2000/svg" xmlns:xlink="http://www.w3.org/1999/xlink" x="0px" y="0px"
	 width="400px" height="350px" viewBox="0 0 400 350" enable-background="new 0 0 400 350" xml:space="preserve">
<g>
	<path fill="#ED8F27" d="M219.534,98.666c0,0-4.244-1.99-6.196-2.117v-0.572c3.12-1.222,5.082-4.204,5.082-7.685
		c0-4.565-3.802-8.28-8.473-8.28c-4.671,0-8.473,3.715-8.473,8.28c0,3.526,2.019,6.535,5.202,7.729l0.002,0.528h-0.039
		c-1.81,0.081-6.132,2.109-6.132,2.109s-0.565,0.435-0.502,0.767c0.062,0.331,0.384,0.574,0.759,0.574h6.932h4.622h6.931
		c0.37,0,0.688-0.237,0.757-0.561C220.077,99.112,219.534,98.666,219.534,98.666L219.534,98.666z M219.534,98.666"/>
</g>
<g>
	<path fill="#ED8F27" d="M39.919,88.027L31.21,81.08c-0.745-0.599-1.911-0.599-2.655,0l-8.642,6.948
		c-0.295,0.238-0.346,0.674-0.113,0.975c0.233,0.3,0.663,0.352,0.958,0.114l0.28-0.225v8.401c0,1.191,1.213,2.081,2.299,2.081
		h13.638c1.072,0,1.793-0.837,1.793-2.081v-8.422l0.309,0.246c0.125,0.1,0.273,0.148,0.42,0.148c0.203,0,0.403-0.091,0.537-0.266
		C40.266,88.699,40.214,88.263,39.919,88.027L39.919,88.027L39.919,88.027z M31.949,96.539v1.448h-4.091v-3.883
		c0-0.807,0.64-1.675,2.046-1.675c1.406,0,2.046,0.868,2.046,1.675V96.539L31.949,96.539L31.949,96.539z M31.949,96.539"/>
</g>
<g>
	<path fill="#ED8F27" d="M155.631,99.929h-11.307c-1.237,0-2.371-0.887-2.581-2.022l-1.632-9.197
		c-0.107-0.577,0.054-1.157,0.442-1.584c0.387-0.428,0.973-0.673,1.607-0.673h15.637c0.635,0,1.221,0.246,1.608,0.674
		c0.387,0.428,0.547,1.007,0.438,1.589l-1.63,9.186C158,99.042,156.867,99.929,155.631,99.929L155.631,99.929L155.631,99.929
		L155.631,99.929z M142.16,87.871c-0.186,0-0.344,0.06-0.442,0.169c-0.099,0.109-0.136,0.264-0.104,0.436l1.633,9.197
		c0.082,0.445,0.587,0.84,1.079,0.84h11.307c0.492,0,0.997-0.396,1.081-0.846l1.63-9.186c0.033-0.177-0.004-0.331-0.102-0.44
		c-0.099-0.109-0.257-0.169-0.443-0.169H142.16L142.16,87.871L142.16,87.871L142.16,87.871z M145.364,90.707l-0.002,0.001
		l0.002,0.708L145.364,90.707L145.364,90.707L145.364,90.707L145.364,90.707z M154.547,90.707h-0.002l0.001,0.708L154.547,90.707
		L154.547,90.707L154.547,90.707z M155.308,85.764c-0.421,0-0.761-0.317-0.761-0.708c0-2.027-2.433-3.541-4.609-3.541
		c-2.226,0-4.528,1.322-4.528,3.533c0,0.391-0.341,0.708-0.762,0.708c-0.42,0-0.762-0.317-0.762-0.708
		c0-3.098,3.077-4.949,6.052-4.949c2.901,0,6.133,2.036,6.133,4.958C156.07,85.447,155.73,85.764,155.308,85.764L155.308,85.764
		L155.308,85.764L155.308,85.764z M142.16,87.871c-0.186,0-0.344,0.06-0.442,0.169c-0.099,0.109-0.136,0.264-0.104,0.436
		l1.633,9.197c0.082,0.445,0.587,0.84,1.079,0.84h11.307c0.492,0,0.997-0.396,1.081-0.846l1.63-9.186
		c0.033-0.177-0.004-0.331-0.102-0.44c-0.099-0.109-0.257-0.169-0.443-0.169H142.16L142.16,87.871L142.16,87.871L142.16,87.871z
		 M145.364,92.123c-0.841,0-1.524-0.635-1.524-1.417c0-0.781,0.683-1.417,1.524-1.417c0.839,0,1.522,0.635,1.522,1.417
		C146.886,91.487,146.203,92.123,145.364,92.123L145.364,92.123L145.364,92.123L145.364,92.123z M154.546,92.123
		c-0.84,0-1.523-0.635-1.523-1.417c0-0.781,0.683-1.417,1.523-1.417c0.84,0,1.523,0.635,1.523,1.417
		C156.069,91.487,155.386,92.123,154.546,92.123L154.546,92.123L154.546,92.123L154.546,92.123z M154.546,92.123"/>
</g>
<g>
	<defs>
		<rect id="SVGID_1_" x="80.013" y="80.063" width="19.833" height="19.875"/>
	</defs>
	<clipPath id="SVGID_2_">
		<use xlink:href="#SVGID_1_"  overflow="visible"/>
	</clipPath>
	<g clip-path="url(#SVGID_2_)">
		<path fill="#ED8F27" d="M86.616,80.066h-4.555c-1.13,0-2.049,0.92-2.049,2.05v4.557c0,1.13,0.919,2.05,2.049,2.05h4.555
			c1.13,0,2.049-0.92,2.049-2.05v-4.557C88.665,80.986,87.746,80.066,86.616,80.066L86.616,80.066z M86.616,80.066"/>
		<path fill="#ED8F27" d="M97.824,80.066h-4.555c-1.13,0-2.049,0.92-2.049,2.05v4.557c0,1.13,0.919,2.05,2.049,2.05h4.555
			c1.13,0,2.049-0.92,2.049-2.05v-4.557C99.873,80.986,98.953,80.066,97.824,80.066L97.824,80.066z M97.824,80.066"/>
		<path fill="#ED8F27" d="M97.824,91.28h-4.555c-1.13,0-2.049,0.92-2.049,2.05v4.557c0,1.13,0.919,2.05,2.049,2.05h4.555
			c1.13,0,2.049-0.92,2.049-2.05V93.33C99.873,92.2,98.953,91.28,97.824,91.28L97.824,91.28z M97.824,91.28"/>
		<path fill="#ED8F27" d="M86.616,91.28h-4.555c-1.13,0-2.049,0.92-2.049,2.05v4.557c0,1.13,0.919,2.05,2.049,2.05h4.555
			c1.13,0,2.049-0.92,2.049-2.05V93.33C88.665,92.2,87.746,91.28,86.616,91.28L86.616,91.28z M86.616,91.28"/>
	</g>
</g>
<g>
	<path fill="#262535" d="M86.616,19.856h-4.552c-1.129,0-2.048,0.917-2.048,2.044v4.543c0,1.127,0.919,2.044,2.048,2.044h4.552
		c1.129,0,2.048-0.916,2.048-2.044V21.9C88.664,20.773,87.745,19.856,86.616,19.856L86.616,19.856z M87.299,26.443
		c0,0.376-0.306,0.681-0.683,0.681h-4.552c-0.376,0-0.683-0.305-0.683-0.681V21.9c0-0.376,0.306-0.681,0.683-0.681h4.552
		c0.376,0,0.683,0.306,0.683,0.681L87.299,26.443L87.299,26.443z M87.299,26.443"/>
	<path fill="#262535" d="M97.817,19.856h-4.552c-1.129,0-2.048,0.917-2.048,2.044v4.543c0,1.127,0.919,2.044,2.048,2.044h4.552
		c1.129,0,2.048-0.916,2.048-2.044V21.9C99.864,20.773,98.946,19.856,97.817,19.856L97.817,19.856z M98.499,26.443
		c0,0.376-0.306,0.681-0.683,0.681h-4.552c-0.376,0-0.683-0.305-0.683-0.681V21.9c0-0.376,0.306-0.681,0.683-0.681h4.552
		c0.376,0,0.683,0.306,0.683,0.681V26.443L98.499,26.443z M98.499,26.443"/>
	<path fill="#262535" d="M97.817,31.036h-4.552c-1.129,0-2.048,0.917-2.048,2.044v4.543c0,1.127,0.919,2.044,2.048,2.044h4.552
		c1.129,0,2.048-0.917,2.048-2.044V33.08C99.864,31.953,98.946,31.036,97.817,31.036L97.817,31.036z M98.499,37.622
		c0,0.376-0.306,0.681-0.683,0.681h-4.552c-0.376,0-0.683-0.306-0.683-0.681V33.08c0-0.376,0.306-0.681,0.683-0.681h4.552
		c0.376,0,0.683,0.306,0.683,0.681V37.622L98.499,37.622z M98.499,37.622"/>
	<path fill="#262535" d="M86.616,31.036h-4.552c-1.129,0-2.048,0.917-2.048,2.044v4.543c0,1.127,0.919,2.044,2.048,2.044h4.552
		c1.129,0,2.048-0.917,2.048-2.044V33.08C88.664,31.953,87.745,31.036,86.616,31.036L86.616,31.036z M87.299,37.622
		c0,0.376-0.306,0.681-0.683,0.681h-4.552c-0.376,0-0.683-0.306-0.683-0.681V33.08c0-0.376,0.306-0.681,0.683-0.681h4.552
		c0.376,0,0.683,0.306,0.683,0.681L87.299,37.622L87.299,37.622z M87.299,37.622"/>
</g>
<g>
	<path fill="#262535" d="M39.935,27.89l-8.673-7.462c-0.747-0.644-1.918-0.643-2.664,0l-8.672,7.462
		c-0.296,0.256-0.347,0.724-0.113,1.047c0.234,0.323,0.655,0.378,0.951,0.123l0.27-0.241v9.023c0,1.279,1.238,2.235,2.326,2.235
		h13.685c1.076,0,1.779-0.898,1.779-2.235v-8.988l0.25,0.207c0.126,0.108,0.281,0.16,0.429,0.16c0.202,0,0.404-0.097,0.539-0.283
		C40.279,28.614,40.232,28.146,39.935,27.89L39.935,27.89L39.935,27.89z M29.246,38.586v-4.13c0-0.206,0.342-0.308,0.684-0.308
		c0.342,0,0.684,0.103,0.684,0.308v4.13H29.246L29.246,38.586L29.246,38.586z M37.458,37.841c0,0.494-0.125,0.745-0.411,0.745h-5.05
		c0-0.011-0.014-0.02-0.014-0.031v-4.098c0-0.866-0.642-1.799-2.053-1.799c-1.411,0-2.053,0.933-2.053,1.799v4.099
		c0,0.011,0.018,0.02,0.018,0.031h-4.535c-0.429,0-0.958-0.404-0.958-0.745V27.64l7.034-6.043c0.253-0.218,0.708-0.218,0.961,0
		l7.059,6.078V37.841L37.458,37.841L37.458,37.841z M37.458,37.841"/>
</g>
<g>
	<path fill="#262535" d="M155.689,40h-11.527c-1.262,0-2.417-0.902-2.632-2.055l-1.664-9.35c-0.109-0.587,0.055-1.176,0.45-1.611
		c0.394-0.435,0.992-0.684,1.638-0.684h15.942c0.647,0,1.245,0.25,1.64,0.685c0.394,0.435,0.557,1.024,0.446,1.616l-1.662,9.339
		C158.104,39.098,156.949,40,155.689,40L155.689,40z M141.954,27.741c-0.19,0-0.351,0.06-0.451,0.171
		c-0.101,0.111-0.138,0.269-0.106,0.444l1.665,9.35c0.084,0.452,0.599,0.854,1.1,0.854h11.527c0.502,0,1.016-0.403,1.102-0.86
		l1.662-9.339c0.033-0.18-0.004-0.337-0.104-0.448c-0.101-0.111-0.262-0.172-0.452-0.172H141.954L141.954,27.741z M141.954,27.741"
		/>
	<path fill="#262535" d="M145.221,32.065c-0.857,0-1.553-0.646-1.553-1.44c0-0.794,0.696-1.44,1.553-1.44
		c0.856,0,1.552,0.646,1.552,1.44C146.773,31.418,146.077,32.065,145.221,32.065L145.221,32.065z M145.221,30.624
		c0,0-0.002,0-0.002,0.001l0.002,0.719L145.221,30.624L145.221,30.624z M145.221,30.624"/>
	<path fill="#262535" d="M154.582,32.065c-0.856,0-1.553-0.646-1.553-1.44c0-0.794,0.696-1.44,1.553-1.44
		c0.856,0,1.553,0.646,1.553,1.44C156.135,31.418,155.439,32.065,154.582,32.065L154.582,32.065z M154.583,30.624h-0.002l0.001,0.72
		L154.583,30.624L154.583,30.624z M154.583,30.624"/>
	<path fill="#262535" d="M155.36,25.599c-0.429,0-0.776-0.323-0.776-0.72c0-2.061-2.48-3.6-4.699-3.6
		c-2.269,0-4.617,1.344-4.617,3.592c0,0.397-0.348,0.72-0.776,0.72c-0.429,0-0.776-0.323-0.776-0.72c0-3.15,3.137-5.032,6.17-5.032
		c2.957,0,6.252,2.07,6.252,5.04C156.136,25.277,155.789,25.599,155.36,25.599L155.36,25.599z M155.36,25.599"/>
</g>
<g>
	<path fill="#262535" d="M200.835,39.999c-0.277,0-0.548-0.127-0.707-0.359c-0.246-0.359-0.128-0.834,0.26-1.06
		c0.144-0.084,3.561-2.054,6.272-2.179h0.013v-0.433c-3.137-1.2-5.204-4.22-5.204-7.701c0-4.556,3.804-8.262,8.48-8.262
		c4.676,0,8.481,3.706,8.481,8.262c0,3.477-1.976,6.419-5.084,7.653v0.489c2.732,0.226,6.122,2.082,6.268,2.162
		c0.395,0.218,0.524,0.69,0.288,1.054c-0.237,0.365-0.75,0.483-1.144,0.266c-0.033-0.018-3.291-1.799-5.584-1.954l-0.662,0.001
		c-0.461,0-0.834-0.344-0.834-0.769v-1.776c0-0.328,0.226-0.621,0.563-0.727c2.747-0.871,4.521-3.382,4.521-6.399
		c0-3.707-3.056-6.723-6.813-6.723c-3.756,0-6.811,3.016-6.811,6.724c0,3.021,1.859,5.607,4.628,6.434
		c0.344,0.102,0.576,0.398,0.576,0.731v1.737c0,0.425-0.374,0.769-0.834,0.769h-0.805c-2.237,0.104-5.392,1.924-5.423,1.942
		C201.141,39.961,200.987,39.999,200.835,39.999L200.835,39.999z M200.835,39.999"/>
</g>
<g>
	<path fill="#262535" d="M359,295.006h6.001l-3.001-3.996L359,295.006L359,295.006L359,295.006z M359,295.006"/>
	<path fill="#262535" d="M365.001,297.004H359l3.001,3.996L365.001,297.004L365.001,297.004L365.001,297.004z M365.001,297.004"/>
</g>
<g>
	<defs>
		<rect id="SVGID_3_" x="359" y="312" width="6" height="10"/>
	</defs>
	<clipPath id="SVGID_4_">
		<use xlink:href="#SVGID_3_"  overflow="visible"/>
	</clipPath>
	<g clip-path="url(#SVGID_4_)">
		<defs>
			<rect id="SVGID_5_" x="359" y="312" width="6" height="10"/>
		</defs>
		<clipPath id="SVGID_6_">
			<use xlink:href="#SVGID_5_"  overflow="visible"/>
		</clipPath>
		<g clip-path="url(#SVGID_6_)">
			<path fill="#ED8F27" d="M359,316.006h6.001l-3.001-3.996L359,316.006L359,316.006L359,316.006z M359,316.006"/>
			<path fill="#ED8F27" d="M365.001,318.004H359l3.001,3.996L365.001,318.004L365.001,318.004L365.001,318.004z M365.001,318.004"/>
		</g>
	</g>
</g>
<g>
	<path fill="#262535" d="M339.003,296.001H333l3.002,4.999L339.003,296.001L339.003,296.001z M339.003,296.001"/>
</g>
<g>
	<path fill="#ED8F27" d="M339.003,316.501H333l3.002,4.999L339.003,316.501L339.003,316.501z M339.003,316.501"/>
</g>
<g>
	<path fill="#262535" d="M300.005,305c-0.561,0-1.087-0.218-1.484-0.614l-2.907-2.903c-0.396-0.396-0.615-0.922-0.615-1.482
		c0-0.56,0.218-1.086,0.615-1.482l2.907-2.903c0.396-0.396,0.923-0.614,1.484-0.614c0.56,0,1.087,0.218,1.484,0.614l2.907,2.903
		c0.396,0.396,0.615,0.922,0.615,1.482c0,0.56-0.218,1.086-0.615,1.482l-2.907,2.903C301.093,304.782,300.566,305,300.005,305
		L300.005,305z M300.005,295.664c-0.384,0-0.744,0.149-1.016,0.42l-2.907,2.903c-0.56,0.559-0.56,1.469,0,2.029l2.907,2.903
		c0.271,0.271,0.632,0.42,1.016,0.42c0.384,0,0.744-0.149,1.016-0.42l2.907-2.903c0.56-0.559,0.56-1.469,0-2.029l-2.907-2.903
		C300.749,295.813,300.389,295.664,300.005,295.664L300.005,295.664z M300.005,295.664"/>
</g>
<g>
	<path fill="#262535" d="M337.802,209.61l1.358,2.695c0,0,2.207-5.478,5.688-7.303c-0.085,1.304-0.424,2.434,0.17,3.826
		c-1.528,0.347-4.669,4.26-5.688,6.173c-1.443-1.826-3.141-3.217-4.33-3.652L337.802,209.61L337.802,209.61z M337.802,209.61"/>
</g>
<g>
	<path fill="#ED8F27" d="M337.802,249.61l1.358,2.695c0,0,2.207-5.478,5.688-7.303c-0.085,1.304-0.424,2.434,0.17,3.826
		c-1.528,0.347-4.669,4.26-5.688,6.173c-1.443-1.826-3.141-3.217-4.33-3.652L337.802,249.61L337.802,249.61z M337.802,249.61"/>
</g>
<g>
	<path fill="#898989" d="M374.977,139.85c-0.02-0.035-0.046-0.067-0.081-0.096l-7.923-6.646c-0.164-0.137-0.429-0.137-0.592,0
		l-1.259,1.056c-0.164,0.137-0.164,0.36,0,0.497l0.301,0.253l0,0l2.883,2.418l2.883,2.418c0.166,0.14,0.166,0.366,0,0.505
		l-5.766,4.836l-0.301,0.253c-0.164,0.137-0.164,0.36,0,0.497l0.301,0.253l0.656,0.551l0.301,0.253c0.164,0.137,0.429,0.137,0.592,0
		l0.301-0.253l0,0l6.363-5.337l0,0l1.259-1.056c0.01-0.009,0.02-0.017,0.029-0.027C375.03,140.117,375.047,139.97,374.977,139.85
		L374.977,139.85z M374.977,139.85"/>
</g>
<g>
	<path fill="#262535" d="M373.484,165.871c-0.014-0.03-0.033-0.057-0.056-0.082l-5.546-5.697c-0.115-0.118-0.3-0.118-0.415,0
		l-0.881,0.905c-0.115,0.118-0.115,0.308,0,0.426l0.211,0.217l0,0l2.018,2.073l2.018,2.073c0.116,0.12,0.116,0.314,0,0.433
		l-4.036,4.145l-0.211,0.217c-0.114,0.118-0.114,0.308,0,0.426l0.211,0.217l0.459,0.472l0.211,0.217c0.114,0.118,0.3,0.118,0.415,0
		l0.211-0.217l0,0l4.454-4.575c0,0,0,0,0,0l0.881-0.905c0.007-0.007,0.014-0.015,0.02-0.023
		C373.521,166.1,373.533,165.975,373.484,165.871L373.484,165.871z M373.484,165.871"/>
</g>
<g>
	<path fill="#555555" d="M351.829,110.797l0.002-0.005l-3.989-3.89c0.785-0.924,1.237-2.072,1.274-3.242
		c0.074-1.424-0.484-2.896-1.493-3.934c-0.862-0.907-2.073-1.517-3.322-1.673c-0.243-0.033-0.491-0.05-0.738-0.05
		c-1.236,0-2.442,0.401-3.393,1.128c-1.103,0.82-1.864,2.051-2.089,3.377c-0.223,1.236,0.018,2.561,0.661,3.636
		c0.44,0.747,1.066,1.389,1.811,1.856c0.684,0.431,1.47,0.713,2.273,0.814c0.241,0.033,0.488,0.049,0.735,0.049
		c1.141,0,2.269-0.348,3.188-0.981l3.984,3.888l0.074,0.068l0.002-0.002c0.131,0.105,0.298,0.164,0.47,0.164
		c0.408,0,0.739-0.324,0.739-0.723C352.017,111.1,351.949,110.93,351.829,110.797 M347.785,105.49
		c-0.652,1.302-1.965,2.254-3.425,2.485c-0.683,0.116-1.404,0.08-2.075-0.104c-1.309-0.35-2.43-1.278-2.999-2.484
		c-0.659-1.338-0.577-3.024,0.209-4.295c0.7-1.175,1.932-1.999,3.297-2.206l0.097-0.014c0.051-0.008,0.102-0.016,0.152-0.022
		c0.169-0.017,0.34-0.026,0.51-0.026c0.697,0,1.385,0.146,1.992,0.424c1.11,0.496,1.994,1.419,2.427,2.532
		C348.444,102.97,348.376,104.356,347.785,105.49L347.785,105.49L347.785,105.49z M347.785,105.49"/>
</g>
</svg>
